HIERARCHY
ROOT root
{
	OFFSET 0.000000 0.000000 0.000000
	CHANNELS 6 Xposition Yposition Zposition Zrotation Yrotation Xrotation
	JOINT lhip
	{
		OFFSET 0.058581 -0.082280 -0.017664
		CHANNELS 3 Zrotation Yrotation Xrotation
		JOINT lknee
		{
			OFFSET 0.043451 -0.386469 0.008037
			CHANNELS 3 Zrotation Yrotation Xrotation
			JOINT lankle
			{
				OFFSET -0.014790 -0.426874 -0.037428
				CHANNELS 3 Zrotation Yrotation Xrotation
				JOINT ltoe
				{
					OFFSET 0.041054 -0.060286 0.122042
					CHANNELS 3 Zrotation Yrotation Xrotation
					End Site
					{
						OFFSET 0.000000 0.000000 0.000000
					}
				}
			}
		}
	}
	JOINT rhip
	{
		OFFSET -0.060310 -0.090513 -0.013543
		CHANNELS 3 Zrotation Yrotation Xrotation
		JOINT rknee
		{
			OFFSET -0.043257 -0.383688 -0.004843
			CHANNELS 3 Zrotation Yrotation Xrotation
			JOINT rankle
			{
				OFFSET 0.019056 -0.420046 -0.034562
				CHANNELS 3 Zrotation Yrotation Xrotation
				JOINT rtoe
				{
					OFFSET -0.034840 -0.062106 0.130323
					CHANNELS 3 Zrotation Yrotation Xrotation
					End Site
					{
						OFFSET 0.000000 0.000000 0.000000
					}
				}
			}
		}
	}
	JOINT lowerback
	{
		OFFSET 0.004439 0.124404 -0.038385
		CHANNELS 3 Zrotation Yrotation Xrotation
		JOINT upperback
		{
			OFFSET 0.004488 0.137956 0.026820
			CHANNELS 3 Zrotation Yrotation Xrotation
			JOINT chest
			{
				OFFSET -0.002265 0.056032 0.002855
				CHANNELS 3 Zrotation Yrotation Xrotation
				JOINT lowerneck
				{
					OFFSET -0.013390 0.211636 -0.033468
					CHANNELS 3 Zrotation Yrotation Xrotation
					JOINT upperneck
					{
						OFFSET 0.010113 0.088937 0.050410
						CHANNELS 3 Zrotation Yrotation Xrotation
						End Site
						{
							OFFSET 0.000000 0.000000 0.000000
						}
					}
				}
				JOINT lclavicle
				{
					OFFSET 0.071702 0.114000 -0.018898
					CHANNELS 3 Zrotation Yrotation Xrotation
					JOINT lshoulder
					{
						OFFSET 0.122921 0.045205 -0.019046
						CHANNELS 3 Zrotation Yrotation Xrotation
						JOINT lelbow
						{
							OFFSET 0.255332 -0.015649 -0.022946
							CHANNELS 3 Zrotation Yrotation Xrotation
							JOINT lwrist
							{
								OFFSET 0.265709 0.012698 -0.007375
								CHANNELS 3 Zrotation Yrotation Xrotation
								End Site
								{
									OFFSET 0.000000 0.000000 0.000000
								}
							}
						}
					}
				}
				JOINT rclavicle
				{
					OFFSET -0.082954 0.112472 -0.023707
					CHANNELS 3 Zrotation Yrotation Xrotation
					JOINT rshoulder
					{
						OFFSET -0.113228 0.046853 -0.008472
						CHANNELS 3 Zrotation Yrotation Xrotation
						JOINT relbow
						{
							OFFSET -0.260127 -0.014369 -0.031269
							CHANNELS 3 Zrotation Yrotation Xrotation
							JOINT rwrist
							{
								OFFSET -0.269108 0.006794 -0.006027
								CHANNELS 3 Zrotation Yrotation Xrotation
								End Site
								{
									OFFSET 0.000000 0.000000 0.000000
								}
							}
						}
					}
				}
			}
		}
	}
}
MOTION
Frames: 14
Frame Time: 0.033333
2.109097 0.360731 0.966678 -88.423728 -3.859171 84.469860 16.912939 4.478706 -2.178289 -4.183812 -6.537021 16.085895 1.620193 10.227889 -4.713223 0.000000 -0.000000 0.000000 -13.887959 -7.295574 -5.892042 2.818739 -3.064732 27.989201 1.339052 -7.422294 -20.793540 0.000000 -0.000000 0.000000 1.971961 2.155660 12.766655 0.569970 1.662872 -0.393536 0.391686 -3.211929 2.343557 -1.973128 2.411611 6.408697 -6.580975 -0.045550 24.259169 -25.576310 8.110596 2.791648 -61.807794 -6.986970 3.842419 11.968442 -27.169570 11.880135 1.636260 3.389268 0.195444 24.716980 -6.209273 -2.236316 46.726443 2.178594 7.292833 -9.217759 36.083098 7.910351 -15.949985 -0.638493 7.169602 
2.108400 0.352840 0.961092 -88.076615 -3.413373 84.971178 18.431362 5.515938 -0.994431 -4.503082 -7.041847 13.183624 0.623977 8.873961 -1.776309 0.000000 -0.000000 0.000000 -13.875181 -7.012465 -7.164064 2.647609 -3.609649 29.604697 0.802565 -7.594726 -21.339759 0.000000 -0.000000 0.000000 1.215401 1.654865 12.126537 1.005137 1.815228 -0.579038 0.967628 -3.395298 2.127688 -1.578504 2.398234 6.400465 -6.175235 -0.233707 22.694736 -25.290822 7.861661 3.100761 -61.289202 -7.173965 3.662899 11.964561 -27.333912 11.544782 1.744685 3.677073 0.165142 24.564912 -6.357849 -2.246666 46.640863 1.619502 6.664297 -9.063847 34.197399 7.132345 -16.000168 -1.316208 7.027538 
2.107405 0.343091 0.955555 -87.675252 -2.669249 85.218015 19.534425 6.024290 0.157549 -4.841282 -7.360606 10.975061 -0.107548 8.034436 0.594811 0.000000 -0.000000 0.000000 -13.734777 -6.624109 -7.961802 2.636718 -3.931302 30.961576 0.658196 -8.155940 -21.812768 0.000000 -0.000000 0.000000 0.410486 1.799576 11.980502 1.723408 2.475486 -1.257745 1.822560 -3.922860 2.280644 -0.665441 1.774550 5.880828 -5.935343 -1.230345 21.800176 -25.063823 7.161231 4.103768 -61.129251 -8.294815 4.102528 12.248827 -27.207164 10.975475 1.536960 3.366048 0.123730 24.716439 -6.769812 -2.681988 45.896278 0.624447 6.352827 -9.180853 32.602685 5.903657 -15.947101 -1.908395 6.706281 
2.106531 0.331390 0.949674 -87.139676 -1.856129 85.489364 19.997188 6.466064 0.475662 -5.006519 -6.488332 9.836074 0.396242 8.261197 -1.225503 0.000000 -0.000000 0.000000 -13.679235 -6.449585 -8.745153 2.623465 -4.193034 32.324775 0.844216 -8.617655 -22.127189 0.000000 -0.000000 0.000000 0.169368 1.123188 12.035788 2.145406 1.967281 -1.382825 2.097493 -3.725332 1.975739 -0.077042 1.706544 5.110812 -5.264903 -1.377782 20.440703 -24.616069 7.269824 3.748861 -60.516517 -8.069826 4.007827 11.497388 -28.361001 11.843114 0.753309 3.138448 -0.836789 24.684430 -6.615500 -2.480136 46.124439 0.424276 6.172113 -9.963321 30.962199 4.705006 -16.101981 -2.452825 6.809328 
2.105929 0.318746 0.945182 -86.303748 -0.964366 85.534825 19.950780 6.843698 0.296076 -4.872961 -4.756984 9.509700 0.695862 9.294597 -4.768163 0.000000 -0.000000 0.000000 -13.741600 -6.577418 -8.976110 2.564202 -4.672370 33.273726 1.811402 -8.625571 -22.260662 0.000000 -0.000000 0.000000 -0.356310 1.224142 12.624545 2.746138 1.493046 -2.058180 2.662065 -3.816348 2.158916 1.016063 1.368494 4.038543 -4.650227 -2.287714 19.095921 -24.299367 6.904880 3.589111 -60.065465 -8.552922 4.264304 10.886087 -29.127064 12.248838 0.361091 2.615343 -1.135346 25.189111 -6.844988 -2.939262 45.791101 -0.111073 5.951464 -10.845088 29.860667 3.137967 -16.042374 -2.579903 7.251497 
2.106529 0.306704 0.942222 -85.291166 -0.290542 85.753454 19.169074 6.749114 -0.838358 -4.272819 -4.450368 10.291824 0.772192 10.780128 -8.201366 0.000000 -0.000000 0.000000 -14.281428 -7.383224 -9.463430 2.714895 -5.274001 34.367309 3.457421 -7.878012 -22.208230 0.000000 -0.000000 0.000000 -1.576165 2.258961 13.606366 3.388734 1.289566 -3.939911 3.547201 -4.351630 3.286550 2.780703 1.153903 2.354111 -4.206041 -4.467416 18.530202 -23.616059 6.083060 4.000614 -60.102723 -10.029558 5.017345 10.699013 -29.533761 12.242361 0.320778 1.997862 -1.391717 26.088734 -7.627782 -4.015749 45.516221 -0.792549 5.731243 -12.114778 29.366652 1.085654 -15.826256 -2.528801 7.379760 
2.107483 0.300160 0.940766 -85.607036 0.436292 86.296586 19.640054 6.674156 -2.442973 -4.954627 -5.291795 12.703577 1.055217 11.638511 -10.401001 0.000000 -0.000000 0.000000 -14.675491 -7.880657 -10.898401 3.222382 -5.975346 36.004576 4.715219 -6.239482 -21.278412 0.000000 -0.000000 0.000000 -3.420389 2.881890 14.142563 4.110369 1.378283 -4.689022 4.331089 -4.093633 3.645056 4.160128 1.649986 0.817843 -3.215207 -6.845334 17.494144 -22.656951 6.144131 3.575480 -59.560188 -10.465372 5.434539 9.819023 -31.047286 13.350853 0.265243 1.982483 -2.848370 27.040670 -8.118888 -4.336269 46.415001 -1.003125 5.422824 -13.978611 29.326285 -0.448464 -15.494716 -2.877575 6.074478 
2.110140 0.294077 0.941876 -85.675463 1.245701 87.411239 20.452856 5.551072 -4.821956 -6.334265 -5.309026 15.265120 1.598968 12.766850 -11.718166 0.000000 -0.000000 0.000000 -15.819183 -8.635822 -12.923851 5.067282 -6.865423 37.870497 7.163662 -3.939439 -19.311965 0.000000 -0.000000 0.000000 -4.959046 4.899455 13.856001 4.817205 2.721989 -7.623592 4.949758 -5.083216 6.129833 6.703420 2.048086 -0.912498 -3.533653 -10.385148 19.014184 -22.112117 4.466120 5.314982 -59.119609 -13.086492 7.144989 10.787912 -31.066077 11.502269 0.919780 1.083150 -3.199185 28.624980 -9.110002 -5.645857 46.323766 -2.500548 6.053903 -15.741755 29.709179 -2.691498 -14.932186 -3.184125 3.835083 
2.111741 0.289967 0.941469 -86.801729 2.352100 87.556082 21.721768 6.171066 -5.057945 -6.935746 -4.889911 16.268293 1.954227 12.854984 -12.678616 0.000000 -0.000000 0.000000 -16.774140 -8.450655 -14.850952 6.967737 -6.506953 40.919705 9.022720 0.165036 -16.534725 0.000000 -0.000000 0.000000 -5.032102 4.810742 14.435748 4.931107 3.027367 -5.948531 4.873340 -4.315390 4.961291 7.303093 3.062886 -1.844880 -2.448730 -11.157418 16.571118 -21.596804 4.894607 3.608021 -57.414977 -12.166780 7.099601 9.623403 -33.697471 12.264789 0.674508 1.518148 -3.973442 28.663629 -8.761008 -5.511009 48.148503 -2.651761 6.374200 -16.275898 29.811134 -2.991033 -15.270754 -3.672350 3.417843 
2.111717 0.286709 0.941683 -87.810495 3.278350 87.322307 22.461256 6.157802 -4.497985 -6.864098 -4.754219 16.355894 1.705780 13.725621 -13.594296 0.000000 -0.000000 0.000000 -17.880224 -7.246236 -15.937627 8.370050 -5.996109 42.938859 10.584093 2.610238 -15.854119 0.000000 -0.000000 0.000000 -5.126969 4.316855 15.092547 4.993776 3.250161 -4.432755 4.713443 -3.501256 3.827467 7.470175 3.737349 -2.555901 -1.696008 -11.865205 14.752323 -21.668037 5.397105 2.302397 -55.443306 -11.510848 6.588859 9.058186 -35.589552 11.683563 0.933974 1.065558 -3.979991 28.995560 -8.030403 -5.107758 49.053624 -2.372470 6.758445 -15.629993 28.950543 -2.240121 -15.532833 -3.174053 4.589046 
2.110499 0.283848 0.943181 -87.379948 4.017754 87.042838 22.709847 5.486101 -4.501404 -6.450396 -5.106093 16.650357 1.390347 14.398485 -14.160451 0.000000 -0.000000 0.000000 -19.011763 -7.429801 -15.056980 7.155673 -6.729886 42.124473 10.074166 -0.481276 -17.028782 0.000000 -0.000000 0.000000 -4.878804 4.113535 15.757146 4.960337 2.852607 -4.499691 4.655803 -3.475460 3.868055 7.200639 3.239533 -3.168242 -1.263521 -11.867688 14.564321 -21.640198 5.506928 2.621575 -54.237562 -11.857651 5.852642 9.629950 -36.508706 10.561213 2.226564 0.839388 -5.187893 29.201857 -7.504757 -4.919063 49.407456 -2.475793 7.422557 -14.778217 28.019641 -1.110809 -15.659588 -2.598179 5.937146 
2.109169 0.282854 0.944000 -86.236129 4.630276 87.110070 22.959386 5.047995 -5.284467 -6.096172 -5.557094 17.314125 1.280557 14.305359 -14.533647 0.000000 -0.000000 0.000000 -20.142966 -8.995937 -13.180996 4.487546 -8.345013 38.799469 8.800391 -6.012961 -17.097383 0.000000 -0.000000 0.000000 -4.210308 4.086178 15.982017 4.810289 2.042015 -4.876472 4.578828 -3.754202 4.074010 6.373618 1.856492 -3.441983 -0.515639 -11.034774 14.546974 -21.560360 5.499161 3.497434 -53.418011 -12.528918 4.829435 10.175394 -36.735913 9.551941 4.206352 1.159961 -7.523569 29.041735 -7.307721 -4.598853 49.880142 -2.778410 7.982626 -14.261985 27.486847 -0.312540 -16.032447 -2.385862 7.114401 
2.108139 0.284427 0.943323 -85.410284 4.753115 87.475605 23.043790 4.789850 -6.255009 -6.036605 -5.758944 17.973552 1.739072 14.164744 -14.645754 0.000000 -0.000000 0.000000 -21.542554 -10.470480 -11.529259 2.645492 -9.371652 34.498701 8.081855 -10.718828 -14.383465 0.000000 -0.000000 0.000000 -4.188552 4.948499 15.793073 4.555986 2.049787 -5.929942 4.853563 -4.433412 4.841723 5.967560 0.148228 -3.864600 0.044400 -10.751134 14.744618 -21.227644 5.059356 4.809213 -53.275988 -14.092721 4.474324 11.093066 -35.990120 7.914187 6.226320 1.841684 -9.687775 28.991921 -7.800855 -5.027780 50.007282 -3.577143 8.817158 -14.053056 27.423027 -0.699674 -16.469313 -2.812996 7.608692 
2.106288 0.290009 0.940088 -85.237054 4.739334 87.711347 23.575669 4.968055 -6.815737 -6.232654 -5.503178 18.642616 1.905421 13.607756 -14.762082 0.000000 -0.000000 0.000000 -22.805611 -11.422469 -9.979402 1.495123 -9.855093 29.927289 7.818263 -12.970599 -9.493598 0.000000 -0.000000 0.000000 -4.061019 5.000994 15.354451 4.198887 1.683225 -5.708436 4.802153 -4.252381 4.661914 5.116886 -1.000148 -3.639609 0.986085 -9.767173 13.890081 -21.247671 5.350898 4.998229 -52.453952 -14.076749 3.504408 11.095184 -35.926489 7.447061 6.776660 2.312975 -10.839644 28.681602 -7.779488 -4.539996 50.590612 -3.936653 9.139147 -14.087696 27.335616 -0.860944 -16.734450 -3.378059 7.929507 
